<svg xmlns="http://www.w3.org/2000/svg" width="81.2" height="57.934" viewBox="0 0 81.2 57.934"><path d="M16.1,79.815a12.652,12.652,0,1,1,12.63-12.63A12.667,12.667,0,0,1,16.1,79.815Zm0-22.571A9.919,9.919,0,1,0,26,67.185,9.952,9.952,0,0,0,16.1,57.244Z" transform="translate(-0.644 -21.881)" fill="#040e56"/><path d="M66.974,77.969a16.6,16.6,0,0,1-15.2-9.9,1.368,1.368,0,1,1,2.5-1.1,13.861,13.861,0,0,0,12.7,8.268,14.012,14.012,0,0,0,12.75-8.277,1.367,1.367,0,1,1,2.494,1.121A16.75,16.75,0,0,1,66.974,77.969ZM53.023,56.513a1.369,1.369,0,0,1-1.252-1.919,16.656,16.656,0,0,1,30.446-.008A1.367,1.367,0,0,1,79.723,55.7a14,14,0,0,0-12.75-8.276,13.861,13.861,0,0,0-12.7,8.268A1.37,1.37,0,0,1,53.023,56.513Z" transform="translate(-9.711 -20.035)" fill="#040e56"/><path d="M81.847,70.989H42.406a1.367,1.367,0,0,1-1.368-1.367V57.248a1.367,1.367,0,0,1,1.368-1.367H87.549a1.366,1.366,0,0,1,1.367,1.367v8.991a1.366,1.366,0,0,1-.669,1.175l-5.7,3.383A1.358,1.358,0,0,1,81.847,70.989ZM43.773,68.255h37.7l4.71-2.8V58.614H43.773Z" transform="translate(-7.715 -22.139)" fill="#040e56"/><path d="M40.507,73.854H32.3a1.367,1.367,0,1,1,0-2.734h8.2a1.367,1.367,0,1,1,0,2.734Z" transform="translate(-5.816 -25.004)" fill="#040e56"/><path d="M27.052,51.96a1.367,1.367,0,0,1-1.368-1.367v-34.9a1.368,1.368,0,0,1,1.368-1.368H51.8a1.367,1.367,0,0,1,1.351,1.161l3.985,26a1.367,1.367,0,1,1-2.7.414l-3.808-24.84H28.42V50.593A1.367,1.367,0,0,1,27.052,51.96Z" transform="translate(-4.829 -14.326)" fill="#040e56"/><path d="M4.287,64.079H1.368A1.367,1.367,0,0,1,0,62.712V46.955a1.367,1.367,0,0,1,1-1.318L21.86,39.89a1.367,1.367,0,0,1,.726,2.636L2.735,48V61.345H4.287a1.367,1.367,0,1,1,0,2.734Z" transform="translate(0 -19.123)" fill="#040e56"/><path d="M69.624,68.175a3.893,3.893,0,0,1,0-7.786,3.893,3.893,0,1,1,0,7.786Zm0-5.052a1.124,1.124,0,0,0-1.137,1.135,1.136,1.136,0,0,0,1.137,1.183,1.159,1.159,0,1,0,0-2.318Z" transform="translate(-12.362 -22.986)" fill="#040e56"/><path d="M17.388,75.587A7.114,7.114,0,1,1,24.5,68.473,7.123,7.123,0,0,1,17.388,75.587Zm0-11.495a4.333,4.333,0,0,0-4.38,4.38,4.38,4.38,0,1,0,4.38-4.38Z" transform="translate(-1.931 -23.169)" fill="#040e56"/><path d="M54.906,42.575H27.052a1.368,1.368,0,1,1,0-2.735H54.906a1.368,1.368,0,0,1,0,2.735Z" transform="translate(-4.829 -19.123)" fill="#040e56"/><path d="M36.356,37.779a1.368,1.368,0,0,1-1.368-1.368V15.694a1.368,1.368,0,1,1,2.735,0V36.411A1.368,1.368,0,0,1,36.356,37.779Z" transform="translate(-6.578 -14.326)" fill="#040e56"/><path d="M38.4,48.854H34.415a1.368,1.368,0,0,1,0-2.735H38.4a1.368,1.368,0,0,1,0,2.735Z" transform="translate(-6.213 -20.303)" fill="#040e56"/><path d="M36.408,54.562H34.415a1.367,1.367,0,1,1,0-2.734h1.993a1.367,1.367,0,1,1,0,2.734Z" transform="translate(-6.213 -21.377)" fill="#040e56"/></svg>