<svg xmlns="http://www.w3.org/2000/svg" width="80.745" height="57.346" viewBox="0 0 80.745 57.346"><g transform="translate(-1.841 -16.095)"><g transform="translate(5.463 56.932)"><path d="M14.8,80.893a8.254,8.254,0,1,1,8.254-8.257A8.266,8.266,0,0,1,14.8,80.893Zm0-14.032a5.778,5.778,0,1,0,5.778,5.776A5.784,5.784,0,0,0,14.8,66.861Z" transform="translate(-6.542 -64.385)" fill="#040e56"/></g><g transform="translate(10.485 61.952)"><path d="M15.712,76.785a3.232,3.232,0,1,1,3.232-3.234A3.237,3.237,0,0,1,15.712,76.785Zm0-3.989a.757.757,0,1,0,.757.755A.756.756,0,0,0,15.712,72.8Z" transform="translate(-12.48 -70.321)" fill="#040e56"/></g><g transform="translate(22.453 56.932)"><path d="M34.883,80.893a8.254,8.254,0,1,1,8.256-8.257A8.263,8.263,0,0,1,34.883,80.893Zm0-14.032a5.778,5.778,0,1,0,5.78,5.776A5.784,5.784,0,0,0,34.883,66.861Z" transform="translate(-26.632 -64.385)" fill="#040e56"/></g><g transform="translate(27.472 61.952)"><path d="M35.8,76.785a3.232,3.232,0,1,1,3.235-3.234A3.237,3.237,0,0,1,35.8,76.785Zm0-3.989a.757.757,0,1,0,.759.755A.756.756,0,0,0,35.8,72.8Z" transform="translate(-32.567 -70.321)" fill="#040e56"/></g><g transform="translate(65.111 61.952)"><path d="M80.311,76.785a3.232,3.232,0,1,1,3.232-3.234A3.237,3.237,0,0,1,80.311,76.785Zm0-3.989a.757.757,0,1,0,.757.755A.757.757,0,0,0,80.311,72.8Z" transform="translate(-77.076 -70.321)" fill="#040e56"/></g><g transform="translate(1.841 50.915)"><path d="M58.7,64.283H2.259V57.27H58.7ZM4.735,61.809H56.221V59.746H4.735Z" transform="translate(-2.259 -57.27)" fill="#040e56"/></g><g transform="translate(11.722 19.492)"><rect width="2.479" height="6.276" transform="translate(2.326 0) rotate(21.76)" fill="#040e56"/></g><g transform="translate(47.674 33.834)"><rect width="2.479" height="6.281" transform="translate(2.328 0) rotate(21.76)" fill="#040e56"/></g><g transform="translate(22.867 18.91)"><rect width="2.478" height="33.032" transform="matrix(0.929, 0.371, -0.371, 0.929, 12.242, 0)" fill="#040e56"/></g><g transform="translate(6.316 33.91)"><path d="M14.686,56.642H7.551V37.161h7.135Zm-4.659-2.475h2.184V39.636H10.027Z" transform="translate(-7.551 -37.161)" fill="#040e56"/></g><g transform="translate(3.297 16.095)"><path d="M35.177,53.391a29.954,29.954,0,0,1-10.95-2.164A28.558,28.558,0,0,1,11.9,41.943l-.242-.329v-5.23l-2.3-.087L3.98,34.153l6.977-17.5,4.83,1.927c5.8-3.167,14.17-3.334,21.617-.363,7.506,3,13.357,8.759,15.425,15.142l4.68,1.866-6.984,17.5-4.678-1.864A22.265,22.265,0,0,1,35.177,53.391ZM14.135,40.8a26.173,26.173,0,0,0,11.012,8.133c6.973,2.78,14.8,2.558,19.975-.5l.524-.31,3.5,1.4,5.153-12.9-3.5-1.4-.167-.583c-1.683-5.894-7.1-11.3-14.144-14.11-6.975-2.787-14.8-2.565-19.972.5l-.525.31L12.34,19.87,7.2,32.771l2.858,1.139h4.081Z" transform="translate(-3.98 -16.095)" fill="#040e56"/></g><g transform="translate(60.091 56.932)"><path d="M79.395,80.893a8.254,8.254,0,1,1,8.254-8.257A8.266,8.266,0,0,1,79.395,80.893Zm0-14.032a5.778,5.778,0,1,0,5.778,5.776A5.784,5.784,0,0,0,79.395,66.861Z" transform="translate(-71.14 -64.385)" fill="#040e56"/></g><g transform="translate(55.804 32.275)"><path d="M92.852,65.742h-8.96l-.363-.593a5.731,5.731,0,0,0-9.834,0l-.36.6H66.07V35.228H84.142l8.71,19.109Zm-7.606-2.476h5.13V54.61L82.56,37.7H68.545V63.265h3.433a8.2,8.2,0,0,1,13.268,0Z" transform="translate(-66.07 -35.228)" fill="#040e56"/></g><g transform="translate(1.841 55.454)"><path d="M58.7,69.972H36.4l-.363-.593a5.731,5.731,0,0,0-9.835,0l-.36.593H19.412l-.36-.593a5.731,5.731,0,0,0-9.835,0l-.36.593h-6.6V62.637H58.7ZM37.758,67.5H56.221V65.112H35.045A8.192,8.192,0,0,1,37.758,67.5Zm-16.989,0h3.72A8.184,8.184,0,0,1,27.2,65.112H18.061A8.192,8.192,0,0,1,20.769,67.5Zm-16.034,0H7.5a8.175,8.175,0,0,1,2.708-2.384H4.735Z" transform="translate(-2.259 -62.637)" fill="#040e56"/></g><g transform="translate(61.22 37.502)"><path d="M93.606,54.51H72.474v-13.1H87.547ZM74.948,52.035H89.732l-3.767-8.15H74.948Z" transform="translate(-72.474 -41.409)" fill="#040e56"/></g><g transform="translate(76.073 52.357)"><path d="M96.551,69.407H90.038V58.975h6.513Zm-4.037-2.476h1.562V61.45H92.514Z" transform="translate(-90.038 -58.975)" fill="#040e56"/></g></g></svg>