<svg xmlns="http://www.w3.org/2000/svg" width="76" height="64.917" viewBox="0 0 76 64.917"><path d="M143.29,123.048v2.908h-1.385a1.111,1.111,0,0,0-1.108,1.108V134.5a7.985,7.985,0,0,1,7.043,11.465H161.56a3.77,3.77,0,0,0,7.346,0h3.1v-3.8c2.141-2.714,2.838-5.086,2.065-7.05l-.005-.012a5.132,5.132,0,0,0-.03-2.428c-.67-2.537-3.233-4.116-5.076-4.949V116.54H153.456V133.2h-1.442v-6.139a1.111,1.111,0,0,0-1.108-1.108h-1.385v-2.908H143.29Zm1.073.969h4.085v1.938h-4.085Zm7.65,13.615h1.442v1.015h-1.442Zm13.219,9.446a1.967,1.967,0,0,1-1.772-1.115H167A1.967,1.967,0,0,1,165.233,147.078Zm6.777-6.316v-1.79a11.53,11.53,0,0,0,1.533-2.357A7.163,7.163,0,0,1,172.009,140.763Zm1.227-7.88a4.1,4.1,0,0,1,.13,1.015,9.119,9.119,0,0,0-4.4-2.663v-2.589C170.618,129.448,172.695,130.83,173.236,132.883Zm-9.442-13.435a1.754,1.754,0,1,1-1.754,1.754A1.754,1.754,0,0,1,163.794,119.448Zm5.169,12.664c1.5.493,3.449,1.426,4.234,3.065a9.228,9.228,0,0,1-2,3.471h-2.236v-1.015h.715v-1.754h-.715v-.923h.715V133.2h-.715Zm-15.508,2.844v.923h-1.442v-.923Z" transform="translate(-101.808 -84.267)" fill="#040e56"/><path d="M77.193,104.414l-.435.636,1.827.317Z" transform="translate(-55.502 -75.499)" fill="#040e56"/><path d="M97.987,119.943l-2.7-1.85a2.809,2.809,0,0,1-1.163,2.56l1.608,1.1,6.232,15.581a7.964,7.964,0,0,1,2.455-1.319Z" transform="translate(-68.056 -85.39)" fill="#040e56"/><path d="M9.8,70.665l-.37-10.709a2.827,2.827,0,0,1,2.725-2.92l.1,0a2.812,2.812,0,0,1,2.82,2.727l.29,8.415.067.012c.351-2.4.859-4.69,1.228-6.578.8-2.756-.245-6.055-2.609-6.644s-5.791.695-7.185,4.749A30.584,30.584,0,0,0,5.3,75.091a5.834,5.834,0,0,0,2.154,3.838c.025.1.053.2.087.292S10.329,88.166.874,98.8a3.462,3.462,0,0,0,5.175,4.6c5.329-5.995,7.576-11.672,8.4-16.224a50.575,50.575,0,0,1,4.275,14.4,3.461,3.461,0,1,0,6.84-1.069c-2.267-14.5-7.77-21.788-10.357-24.507,0-.066-.006-.131-.01-.2a19.185,19.185,0,0,1-.154-1.952l-2.9-.5A2.837,2.837,0,0,1,9.8,70.665Z" transform="translate(0 -39.647)" fill="#040e56"/><path d="M52.812,80.334a2.215,2.215,0,0,0-1.8-2.561L40.987,76.036l-.307-8.91a2.215,2.215,0,0,0-4.428.153l.37,10.709a2.215,2.215,0,0,0,1.836,2.106l11.794,2.044a2.213,2.213,0,0,0,2.561-1.8Z" transform="translate(-26.212 -46.991)" fill="#040e56"/><path d="M48.2,31.476a6.231,6.231,0,1,0,12.4-.838H48.257A6.243,6.243,0,0,0,48.2,31.476Z" transform="translate(-34.851 -22.154)" fill="#040e56"/><path d="M44.5,7.04a.835.835,0,0,0,.835.836H58.364a.836.836,0,0,0,0-1.672h-.115a6.4,6.4,0,0,0-2.791-5.122v.51a.661.661,0,1,1-1.323,0V.389A6.358,6.358,0,0,0,52.509,0V1.591a.661.661,0,1,1-1.323,0V0A6.358,6.358,0,0,0,49.56.389v1.2a.661.661,0,1,1-1.323,0v-.51A6.4,6.4,0,0,0,45.446,6.2H45.33A.835.835,0,0,0,44.5,7.04Z" transform="translate(-32.174)" fill="#040e56"/><path d="M130.022,193.576a6.369,6.369,0,1,0-6.369,6.369A6.369,6.369,0,0,0,130.022,193.576Zm-3.046,0a3.323,3.323,0,1,1-3.323-3.323A3.323,3.323,0,0,1,126.976,193.576Z" transform="translate(-84.805 -135.365)" fill="#040e56"/><path d="M248.38,68.984A2.837,2.837,0,0,0,245,70.278a2.768,2.768,0,1,0-2.056,5.132c.03.01.059.016.089.025l-1.743,3.2.354.217,1.572-2.567,1.284-2.1-.609-.335L243.268,75a2.3,2.3,0,0,1,1.544-4.317c-.01.027-.022.052-.031.079a2.823,2.823,0,0,0-.046,1.673,2.37,2.37,0,1,1,3.5,1.971,2.848,2.848,0,0,0,.856-.406,2.3,2.3,0,0,1-3.766,2.607l.958-.9-.479-.5-1.652,1.722-2.133,2.224.3.287,2.5-2.35a2.905,2.905,0,1,0,4.686-3.434,2.834,2.834,0,0,0-1.118-4.665Z" transform="translate(-174.306 -49.771)" fill="#040e56"/><path d="M182.754,74.7a2.769,2.769,0,0,0,3.915-.035c.022-.022.04-.047.061-.069l2.129,2.961.349-.225-1.629-2.531-1.33-2.067-.567.4.757,1.053a2.3,2.3,0,0,1-3.218-3.265c.02.021.037.043.058.063a2.822,2.822,0,0,0,1.487.768,2.37,2.37,0,1,1,3.294-2.293,2.855,2.855,0,0,0,.006-.947,2.3,2.3,0,0,1,.713,4.524l-.4-1.255-.662.213.834,2.236,1.077,2.887.389-.146-1.032-3.27A2.905,2.905,0,1,0,187.931,68a2.836,2.836,0,1,0-4.991,2.592,2.841,2.841,0,0,0-.221.2A2.768,2.768,0,0,0,182.754,74.7Z" transform="translate(-131.546 -47.817)" fill="#040e56"/></svg>