<svg xmlns="http://www.w3.org/2000/svg" width="54.2" height="52.283" viewBox="0 0 54.2 52.283"><path d="M0,3.591v9.891H6.412l-.957,6.066H0v9.891H3.9L.433,51.389l5.666.894L9.7,29.438H44.5l3.6,22.844,5.666-.894L50.3,29.438h3.9V19.548H48.745l-.957-6.066H54.2V3.591H46.228L45.662,0,40,.894l.425,2.7H13.78L14.2.894,8.538,0,7.972,3.591Zm12.924,24.2H5.67L10.682,21.2h7.253Zm15.3,0H20.968L25.979,21.2h7.253Zm15.3,0H36.265L41.277,21.2H48.53Zm-.581-8.242H11.263l.957-6.066H41.981ZM41.276,5.239h7.253l-5.011,6.594H36.265Zm-15.3,0h7.253l-5.011,6.594H20.968Zm-8.045,0-5.011,6.594H5.67l5.011-6.594Z" fill="#040e56"/></svg>